<?xml version="1.0" encoding="UTF-8" standalone="no"?>
<!DOCTYPE svg PUBLIC "-//W3C//DTD SVG 1.1//EN" "http://www.w3.org/Graphics/SVG/1.1/DTD/svg11.dtd">
<svg width="100%" height="100%" viewBox="0 0 3309 94" version="1.1" xmlns="http://www.w3.org/2000/svg" xmlns:xlink="http://www.w3.org/1999/xlink" xml:space="preserve" xmlns:serif="http://www.serif.com/" style="fill-rule:evenodd;clip-rule:evenodd;stroke-linecap:square;">
    <g id="Artboard1" transform="matrix(1.43123,0,0,1,0,0)">
        <rect x="0" y="0" width="2312" height="94" style="fill:none;"/>
        <g>
            <clipPath id="_clip1">
                <rect x="0" y="0" width="2312" height="94"/>
            </clipPath>
            <g clip-path="url(#_clip1)">
                <g transform="matrix(0.702101,0,0,1,-0.017,0)">
                    <path d="M5,5L3293,5" style="fill:none;fill-rule:nonzero;stroke:rgb(69,31,8);stroke-width:10px;"/>
                </g>
                <g transform="matrix(0.702101,0,0,1,-0.017,0)">
                    <path d="M5,89L3293,89" style="fill:none;fill-rule:nonzero;stroke:rgb(69,31,8);stroke-width:10px;"/>
                </g>
                <g transform="matrix(0.698701,0,0,1,-50.3064,0)">
                    <path d="M5,70.27L5,23.162L59.487,23.162L59.487,52.676L41.892,52.676L41.892,40.757L22.027,40.757L22.027,70.27L76.513,70.27L76.513,23.162L131,23.162L131,52.676L113.405,52.676L113.405,40.757L93.54,40.757L93.54,70.27L149.162,70.27L149.162,23.162L203.649,23.162L203.649,52.676L186.054,52.676L186.054,40.757L166.189,40.757L166.189,70.27L220.676,70.27L220.676,23.162L275.162,23.162L275.162,52.676L257.568,52.676L257.568,40.757L237.703,40.757L237.703,70.27L293.324,70.27L293.324,23.162L347.811,23.162L347.811,52.676L330.216,52.676L330.216,40.757L310.351,40.757L310.351,70.27L364.838,70.27L364.838,23.162L419.324,23.162L419.324,52.676L401.73,52.676L401.73,40.757L381.865,40.757L381.865,70.27L437.486,70.27L437.486,23.162L491.973,23.162L491.973,52.676L474.378,52.676L474.378,40.757L454.513,40.757L454.513,70.27L509,70.27L509,23.162L563.486,23.162L563.486,52.676L545.892,52.676L545.892,40.757L526.027,40.757L526.027,70.27L581.649,70.27L581.649,23.162L636.135,23.162L636.135,52.676L618.54,52.676L618.54,40.757L598.676,40.757L598.676,70.27L653.162,70.27L653.162,23.162L707.649,23.162L707.649,52.676L690.054,52.676L690.054,40.757L670.189,40.757L670.189,70.27L725.811,70.27L725.811,23.162L780.297,23.162L780.297,52.676L762.703,52.676L762.703,40.757L742.838,40.757L742.838,70.27L797.324,70.27L797.324,23.162L851.811,23.162L851.811,52.676L834.216,52.676L834.216,40.757L814.351,40.757L814.351,70.27L869.973,70.27L869.973,23.162L924.459,23.162L924.459,52.676L906.865,52.676L906.865,40.757L887,40.757L887,70.27L941.486,70.27L941.486,23.162L995.973,23.162L995.973,52.676L978.378,52.676L978.378,40.757L958.513,40.757L958.513,70.27L1014.14,70.27L1014.14,23.162L1068.62,23.162L1068.62,52.676L1051.03,52.676L1051.03,40.757L1031.16,40.757L1031.16,70.27L1085.65,70.27L1085.65,23.162L1140.14,23.162L1140.14,52.676L1122.54,52.676L1122.54,40.757L1102.68,40.757L1102.68,70.27L1158.3,70.27L1158.3,23.162L1212.78,23.162L1212.78,52.676L1195.19,52.676L1195.19,40.757L1175.32,40.757L1175.32,70.27L1229.81,70.27L1229.81,23.162L1284.3,23.162L1284.3,52.676L1266.7,52.676L1266.7,40.757L1246.84,40.757L1246.84,70.27L1302.46,70.27L1302.46,23.162L1356.95,23.162L1356.95,52.676L1339.35,52.676L1339.35,40.757L1319.49,40.757L1319.49,70.27L1373.97,70.27L1373.97,23.162L1428.46,23.162L1428.46,52.676L1410.86,52.676L1410.86,40.757L1391,40.757L1391,70.27L1446.62,70.27L1446.62,23.162L1501.11,23.162L1501.11,52.676L1483.51,52.676L1483.51,40.757L1463.65,40.757L1463.65,70.27L1518.14,70.27L1518.14,23.162L1572.62,23.162L1572.62,52.676L1555.03,52.676L1555.03,40.757L1535.16,40.757L1535.16,70.27L1590.78,70.27L1590.78,23.162L1645.27,23.162L1645.27,52.676L1627.68,52.676L1627.68,40.757L1607.81,40.757L1607.81,70.27L1662.3,70.27L1662.3,23.162L1716.78,23.162L1716.78,52.676L1699.19,52.676L1699.19,40.757L1679.32,40.757L1679.32,70.27L1734.95,70.27L1734.95,23.162L1789.43,23.162L1789.43,52.676L1771.84,52.676L1771.84,40.757L1751.97,40.757L1751.97,70.27L1806.46,70.27L1806.46,23.162L1860.95,23.162L1860.95,52.676L1843.35,52.676L1843.35,40.757L1823.49,40.757L1823.49,70.27L1879.11,70.27L1879.11,23.162L1933.59,23.162L1933.59,52.676L1916,52.676L1916,40.757L1896.14,40.757L1896.14,70.27L1950.62,70.27L1950.62,23.162L2005.11,23.162L2005.11,52.676L1987.51,52.676L1987.51,40.757L1967.65,40.757L1967.65,70.27L2023.27,70.27L2023.27,23.162L2077.76,23.162L2077.76,52.676L2060.16,52.676L2060.16,40.757L2040.3,40.757L2040.3,70.27L2094.78,70.27L2094.78,23.162L2149.27,23.162L2149.27,52.676L2131.68,52.676L2131.68,40.757L2111.81,40.757L2111.81,70.27L2167.43,70.27L2167.43,23.162L2221.92,23.162L2221.92,52.676L2204.32,52.676L2204.32,40.757L2184.46,40.757L2184.46,70.27L2238.95,70.27L2238.95,23.162L2293.43,23.162L2293.43,52.676L2275.84,52.676L2275.84,40.757L2255.97,40.757L2255.97,70.27L2311.59,70.27L2311.59,23.446L2366.08,23.446L2366.08,52.959L2348.48,52.959L2348.48,41.041L2328.62,41.041L2328.62,70.554L2383.1,70.554L2383.1,23.446L2437.59,23.446L2437.59,52.96L2419.99,52.96L2419.99,41.041L2400.13,41.041L2400.13,70.554L2455.75,70.554L2455.75,23.446L2510.24,23.446L2510.24,52.96L2492.64,52.96L2492.64,41.041L2472.78,41.041L2472.78,70.554L2527.27,70.554L2527.27,23.446L2581.75,23.446L2581.75,52.96L2564.16,52.96L2564.16,41.041L2544.29,41.041L2544.29,70.554L2599.91,70.554L2599.91,23.446L2654.4,23.446L2654.4,52.959L2636.81,52.959L2636.81,41.041L2616.94,41.041L2616.94,70.554L2671.43,70.554L2671.43,23.446L2725.91,23.446L2725.91,52.96L2708.32,52.96L2708.32,41.041L2688.45,41.041L2688.45,70.554L2744.08,70.554L2744.08,23.446L2798.56,23.446L2798.56,52.96L2780.97,52.96L2780.97,41.041L2761.1,41.041L2761.1,70.554L2815.59,70.554L2815.59,23.446L2870.08,23.446L2870.08,52.96L2852.48,52.96L2852.48,41.041L2832.62,41.041L2832.62,70.554L2888.24,70.554L2888.24,23.446L2942.72,23.446L2942.72,52.959L2925.13,52.959L2925.13,41.041L2905.27,41.041L2905.27,70.554L2959.75,70.554L2959.75,23.446L3014.24,23.446L3014.24,52.96L2996.64,52.96L2996.64,41.041L2976.78,41.041L2976.78,70.554L3032.4,70.554L3032.4,23.446L3086.89,23.446L3086.89,52.96L3069.29,52.96L3069.29,41.041L3049.43,41.041L3049.43,70.554L3103.91,70.554L3103.91,23.446L3158.4,23.446L3158.4,52.96L3140.81,52.96L3140.81,41.041L3120.94,41.041L3120.94,70.554L3176.56,70.554L3176.56,23.446L3231.05,23.446L3231.05,52.959L3213.45,52.959L3213.45,41.041L3193.59,41.041L3193.59,70.554L3248.08,70.554L3248.08,23.446L3302.56,23.446L3302.56,52.96L3284.97,52.96L3284.97,41.041L3265.1,41.041L3265.1,70.554L3320.73,70.554L3320.73,23.446L3375.21,23.446L3375.21,52.96L3357.62,52.96L3357.62,41.041L3337.75,41.041L3337.75,70.554L3392.24,70.554L3392.24,23.446L3446.73,23.446L3446.73,52.96L3429.13,52.96L3429.13,41.041L3409.27,41.041L3409.27,70.554L3464.89,70.554L3464.89,23.446L3519.37,23.446L3519.37,52.959L3501.78,52.959L3501.78,41.041L3481.91,41.041L3481.91,70.554L3536.4,70.554L3536.4,23.446L3590.89,23.446L3590.89,52.96L3573.29,52.96L3573.29,41.041L3553.43,41.041L3553.43,70.554L3609.05,70.554L3609.05,23.446L3663.54,23.446L3663.54,52.96L3645.94,52.96L3645.94,41.041L3626.08,41.041L3626.08,70.554L3680.56,70.554L3680.56,23.446L3735.05,23.446L3735.05,52.96L3717.45,52.96L3717.45,41.041L3697.59,41.041L3697.59,70.554L3753.21,70.554L3753.21,23.446L3807.7,23.446L3807.7,52.959L3790.1,52.959L3790.1,41.041L3770.24,41.041L3770.24,70.554L3824.73,70.554L3824.73,23.446L3879.21,23.446L3879.21,52.96L3861.62,52.96L3861.62,41.041L3841.75,41.041L3841.75,70.554L3897.37,70.554L3897.37,23.446L3951.86,23.446L3951.86,52.96L3934.27,52.96L3934.27,41.041L3914.4,41.041L3914.4,70.554L3968.89,70.554L3968.89,23.446L4023.37,23.446L4023.37,52.96L4005.78,52.96L4005.78,41.041L3985.91,41.041L3985.91,70.554L4041.54,70.554L4041.54,23.446L4096.02,23.446L4096.02,52.959L4078.43,52.959L4078.43,41.041L4058.56,41.041L4058.56,70.554L4113.05,70.554L4113.05,23.446L4167.54,23.446L4167.54,52.96L4149.94,52.96L4149.94,41.041L4130.08,41.041L4130.08,70.554L4185.7,70.554L4185.7,23.446L4240.18,23.446L4240.18,52.96L4222.59,52.96L4222.59,41.041L4202.73,41.041L4202.73,70.554L4257.21,70.554L4257.21,23.446L4311.7,23.446L4311.7,52.96L4294.1,52.96L4294.1,41.041L4274.24,41.041L4274.24,70.554L4329.86,70.554L4329.86,23.446L4384.35,23.446L4384.35,52.959L4366.75,52.959L4366.75,41.041L4346.89,41.041L4346.89,70.554L4401.37,70.554L4401.37,23.446L4455.86,23.446L4455.86,52.96L4438.27,52.96L4438.27,41.041L4418.4,41.041L4418.4,70.554L4474.02,70.554L4474.02,23.446L4528.51,23.446L4528.51,52.96L4510.91,52.96L4510.91,41.041L4491.05,41.041L4491.05,70.554L4545.54,70.554L4545.54,23.446L4600.02,23.446L4600.02,52.96L4582.43,52.96L4582.43,41.041L4562.56,41.041L4562.56,70.554L4618.18,70.554" style="fill:none;fill-rule:nonzero;stroke:rgb(69,31,8);stroke-width:10px;stroke-linecap:butt;"/>
                </g>
            </g>
        </g>
    </g>
</svg>
